<svg xmlns="http://www.w3.org/2000/svg" viewBox="0 0 22 22"><defs><style>.cls-1{fill:#662d91;}.cls-2{fill:#0071bc;}.cls-3{fill:#00a99d;}.cls-4{fill:#39b54a;}.cls-5{fill:#fbb03b;}.cls-6{fill:#f15a24;}.cls-7{fill:#ed1c24;}.cls-8{fill:#9e005d;}</style></defs><title>ui-color-picker-a</title><g id="Layer_2" data-name="Layer 2"><g id="Layer_1-2" data-name="Layer 1"><path class="cls-1" d="M11,11V22a11,11,0,0,1-7.78-3.22Z"/><path class="cls-2" d="M18.78,18.78A11,11,0,0,1,11,22V11Z"/><path class="cls-3" d="M22,11a11,11,0,0,1-3.22,7.78L11,11Z"/><path class="cls-4" d="M22,11H11l7.78-7.78A11,11,0,0,1,22,11Z"/><path class="cls-5" d="M18.78,3.22,11,11V0A11,11,0,0,1,18.78,3.22Z"/><path class="cls-6" d="M11,0V11L3.22,3.22A11,11,0,0,1,11,0Z"/><path class="cls-7" d="M11,11H0A11,11,0,0,1,3.22,3.22Z"/><path class="cls-8" d="M11,11,3.22,18.78A11,11,0,0,1,0,11Z"/></g></g></svg>